<svg id="a" data-name="Layer 1" xmlns="http://www.w3.org/2000/svg" width="24" height="24" viewBox="0 0 24 24"><path d="M13.88 7.77c0 1.04-.84 1.88-1.88 1.88s-1.88-.84-1.88-1.88.84-1.88 1.88-1.88 1.88.84 1.88 1.88ZM.62 16.41c0 2.29 1.47 4.38 4.04 5.72a17.46 17.46 0 0 0 14.69 0c2.57-1.34 4.04-3.43 4.04-5.72s-1.47-4.38-4.04-5.72c-.18-.09-.37-.18-.54-.26.36-.9.54-1.86.54-2.83a7.303 7.303 0 0 0-7.1-7.34h-.51C7.78.38 4.64 3.64 4.66 7.6c0 .97.2 1.93.56 2.83-.19.08-.37.17-.54.26C2.1 12.03.63 14.11.63 16.41ZM11.85 3.19h.3c2.37.08 4.26 2.03 4.26 4.41 0 2.34-2.05 4.52-3.48 6.18-.44.51-1.21.56-1.71.12l-.12-.12C9.66 12.12 7.6 9.94 7.6 7.6c0-2.38 1.88-4.33 4.26-4.41ZM6.65 13c.62.86 1.29 1.64 1.88 2.32l.32.37a4.152 4.152 0 0 0 6.3 0l.32-.37c.59-.68 1.26-1.47 1.88-2.32 1.89.81 3.1 2.03 3.1 3.41 0 2.43-3.78 4.41-8.44 4.41s-8.44-1.97-8.44-4.41c0-1.37 1.21-2.6 3.1-3.41Z"/></svg>